{"title":"The Spoilers(1942)MPEG-4[DaScubaDude]","uid":14530691,"size":885957142,"categoryP":"video","categoryS":"movies","magnet":"?xt=urn:btih:41642364e72bb2d462aedddb1e85ee35f50e36d5&amp;dn=The+Spoilers%281942%29MPEG-4%5BDaScubaDude%5D&amp;tr=udp%3A%2F%2Ftracker.leechers-paradise.org%3A6969&amp;tr=udp%3A%2F%2Fzer0day.ch%3A1337&amp;tr=udp%3A%2F%2Fopen.demonii.com%3A1337&amp;tr=udp%3A%2F%2Ftracker.coppersurfer.tk%3A6969&amp;tr=udp%3A%2F%2Fexodus.desync.com%3A6969","seeders":0,"leechers":0,"uploader":"dascuba","files":1,"time":1462437483,"description":"The Spoilers (1942)\r\nApproved | 1h 27min | Drama, Western | 8 May 1942 (USA)\r\nIn Nome, Alaska, miner Roy Glennister and his partner Dextry, financed by saloon entertainer Cherry Malotte, fight to save their gold claim from crooked commissioner Alexander McNamara.\r\nDirector: Ray Enright\r\nWriters: Rex Beach (novel), Lawrence Hazard (screenplay) | \r\nStars: Marlene Dietrich, Randolph Scott, John Wayne |\r\n\r\nGeneral\r\nComplete name                            : The SpoilersTHE_SPOILERS_Title1.mp4\r\nFormat                                   : MPEG-4\r\nFormat profile                           : Base Media\r\nCodec ID                                 : isom (isom/iso2/avc1/mp41)\r\nFile size                                : 845 MiB\r\nDuration                                 : 1h 27mn\r\nOverall bit rate                         : 1 355 Kbps\r\nMovie name                               : THE_SPOILERS\r\nGenre                                    : Adventure\r\nWriting application                      : Lavf54.6.100\r\n\r\nVideo\r\nID                                       : 1\r\nFormat                                   : AVC\r\nFormat/Info                              : Advanced Video Codec\r\nFormat profile                           :   \r\nFormat settings, CABAC                   : No\r\nFormat settings, ReFrames                : 6 frames\r\nCodec ID                                 : avc1\r\nCodec ID/Info                            : Advanced Video Coding\r\nDuration                                 : 1h 27mn\r\nBit rate                                 : 1 211 Kbps\r\nWidth                                    : 720 pixels\r\nHeight                                   : 540 pixels\r\nDisplay aspect ratio                     : 4:3\r\nFrame rate mode                          : Constant\r\nFrame rate                               : 29.970 (30000/1001) fps\r\nColor space                              : YUV\r\nChroma subsampling                       : 4:2:0\r\nBit depth                                : 8 bits\r\nScan type                                : Progressive\r\nBits/(Pixel*Frame)                       : 0.104\r\nStream size                              : 755 MiB (89%)\r\n\r\nAudio\r\nID                                       : 2\r\nFormat                                   : AAC\r\nFormat/Info                              : Advanced Audio Codec\r\nFormat profile                           : LC\r\nCodec ID                                 : 40\r\nDuration                                 : 1h 27mn\r\nBit rate mode                            : Constant\r\nBit rate                                 : 137 Kbps\r\nChannel(s)                               : 2 channels\r\nChannel positions                        : Front: L R\r\nSampling rate                            : 44.1 KHz\r\nFrame rate                               : 43.066 fps (1024 spf)\r\nCompression mode                         : Lossy\r\nStream size                              : 85.6 MiB (10%)\r\nDefault                                  : Yes\r\nAlternate group                          : 1","torrent":{"xt":"urn:btih:41642364e72bb2d462aedddb1e85ee35f50e36d5","amp;dn":"The+Spoilers%281942%29MPEG-4%5BDaScubaDude%5D","amp;tr":["udp%3A%2F%2Ftracker.leechers-paradise.org%3A6969","udp%3A%2F%2Fzer0day.ch%3A1337","udp%3A%2F%2Fopen.demonii.com%3A1337","udp%3A%2F%2Ftracker.coppersurfer.tk%3A6969","udp%3A%2F%2Fexodus.desync.com%3A6969"],"infoHash":"41642364e72bb2d462aedddb1e85ee35f50e36d5","infoHashBuffer":{"type":"Buffer","data":[65,100,35,100,231,43,178,212,98,174,221,219,30,133,238,53,245,14,54,213]},"announce":[],"urlList":[]}}